<svg width="76" height="95" viewBox="0 0 76 95" fill="none" xmlns="http://www.w3.org/2000/svg">
<path d="M38 0C24.7826 0 0 10 0 38.3333C0 66.6667 38 95 38 95C38 95 76 66.6667 76 38.3333C76 10 51.2174 0 38 0Z" fill="#FEDB3F"/>
<path d="M22.7667 37.432C21.7587 37.432 20.8707 37.256 20.1027 36.904C19.3347 36.552 18.7427 36.064 18.3267 35.44C17.9107 34.8 17.7027 34.064 17.7027 33.232C17.7027 32.528 17.8467 31.888 18.1347 31.312C18.4387 30.736 18.8387 30.28 19.3347 29.944C19.8467 29.608 20.4067 29.44 21.0147 29.44C21.5747 29.44 22.0467 29.584 22.4307 29.872C22.8147 30.144 23.0547 30.528 23.1507 31.024C22.3187 31.024 21.6547 31.248 21.1587 31.696C20.6627 32.128 20.4147 32.72 20.4147 33.472C20.4147 34.16 20.6227 34.712 21.0387 35.128C21.4547 35.544 22.0067 35.752 22.6947 35.752C23.5427 35.752 24.2387 35.472 24.7827 34.912C25.3427 34.336 25.6227 33.616 25.6227 32.752C25.6227 32 25.4147 31.288 24.9987 30.616C24.5827 29.944 23.9587 29.128 23.1267 28.168C22.2627 27.176 21.6067 26.328 21.1587 25.624C20.7267 24.904 20.5107 24.12 20.5107 23.272C20.5107 22.44 20.7427 21.696 21.2067 21.04C21.6707 20.368 22.3107 19.84 23.1267 19.456C23.9427 19.072 24.8627 18.88 25.8867 18.88C27.1827 18.88 28.2147 19.184 28.9827 19.792C29.7667 20.4 30.1587 21.216 30.1587 22.24C30.1587 22.912 29.9907 23.456 29.6547 23.872C29.3187 24.288 28.8787 24.496 28.3347 24.496C27.7267 24.496 27.2387 24.248 26.8707 23.752C27.1747 23.528 27.4147 23.232 27.5907 22.864C27.7667 22.496 27.8547 22.112 27.8547 21.712C27.8547 21.2 27.7027 20.792 27.3987 20.488C27.0947 20.184 26.6787 20.032 26.1507 20.032C25.5107 20.032 24.9827 20.264 24.5667 20.728C24.1667 21.176 23.9667 21.752 23.9667 22.456C23.9667 23.096 24.1507 23.696 24.5187 24.256C24.8867 24.8 25.4627 25.504 26.2467 26.368C26.8867 27.056 27.3987 27.648 27.7827 28.144C28.1827 28.64 28.5187 29.216 28.7907 29.872C29.0787 30.512 29.2227 31.208 29.2227 31.96C29.2227 32.984 28.9347 33.912 28.3587 34.744C27.7987 35.576 27.0227 36.232 26.0307 36.712C25.0547 37.192 23.9667 37.432 22.7667 37.432ZM32.9502 37.144C32.1822 37.144 31.5582 36.904 31.0782 36.424C30.6142 35.944 30.3822 35.224 30.3822 34.264C30.3822 33.864 30.4462 33.344 30.5742 32.704L32.2062 25H35.6622L33.9342 33.16C33.8862 33.4 33.8622 33.624 33.8622 33.832C33.8622 34.488 34.1022 34.816 34.5822 34.816C35.0302 34.816 35.4142 34.632 35.7342 34.264C36.0542 33.88 36.3102 33.36 36.5022 32.704L38.1342 25H41.5902L39.8622 33.16C39.7982 33.4 39.7662 33.656 39.7662 33.928C39.7662 34.248 39.8382 34.48 39.9822 34.624C40.1422 34.752 40.3982 34.816 40.7502 34.816C41.1982 34.816 41.5822 34.624 41.9022 34.24C42.2382 33.856 42.5022 33.344 42.6942 32.704H43.7022C43.1102 34.432 42.3742 35.608 41.4942 36.232C40.6302 36.84 39.7582 37.144 38.8782 37.144C38.1902 37.144 37.6382 36.952 37.2222 36.568C36.8222 36.184 36.5822 35.616 36.5022 34.864C35.9582 35.744 35.3822 36.344 34.7742 36.664C34.1822 36.984 33.5742 37.144 32.9502 37.144ZM44.3234 25H47.7794L47.4674 26.488C48.0114 26.008 48.4994 25.64 48.9314 25.384C49.3794 25.128 49.8594 25 50.3714 25C50.8834 25 51.2834 25.176 51.5714 25.528C51.8754 25.88 52.0274 26.304 52.0274 26.8C52.0274 27.264 51.8754 27.672 51.5714 28.024C51.2674 28.376 50.8434 28.552 50.2994 28.552C49.9474 28.552 49.7074 28.472 49.5794 28.312C49.4674 28.136 49.3794 27.888 49.3154 27.568C49.2674 27.36 49.2194 27.208 49.1714 27.112C49.1234 27.016 49.0354 26.968 48.9074 26.968C48.5714 26.968 48.2834 27.04 48.0434 27.184C47.8194 27.312 47.5234 27.544 47.1554 27.88L45.2354 37H41.7794L44.3234 25ZM49.5548 43C48.8028 43 48.1468 42.752 47.5868 42.256C47.0108 41.776 46.7228 41.16 46.7228 40.408C46.7228 39.72 46.8988 39.152 47.2508 38.704C47.6028 38.256 48.0588 37.896 48.6188 37.624C49.1788 37.368 49.9228 37.096 50.8508 36.808L53.7548 23.104C54.0748 21.568 54.6348 20.504 55.4348 19.912C56.2508 19.32 57.1468 19.024 58.1228 19.024C58.8748 19.024 59.5308 19.272 60.0908 19.768C60.6668 20.248 60.9548 20.864 60.9548 21.616C60.9548 21.984 60.9308 22.312 60.8828 22.6H59.7548C59.7868 22.248 59.8028 22.032 59.8028 21.952C59.8028 21.696 59.7148 21.496 59.5388 21.352C59.3628 21.208 59.1468 21.136 58.8908 21.136C58.5548 21.136 58.2268 21.288 57.9068 21.592C57.5868 21.88 57.3548 22.384 57.2108 23.104L56.8028 25H58.5548L58.3868 25.96H56.6108L53.8508 38.92C53.5308 40.472 52.9788 41.536 52.1948 42.112C51.4108 42.704 50.5308 43 49.5548 43ZM49.0028 40.864C49.6428 40.864 50.0988 40.24 50.3708 38.992L50.6828 37.6C49.8348 37.888 49.1868 38.216 48.7388 38.584C48.2748 38.968 48.0428 39.464 48.0428 40.072C48.0428 40.264 48.1388 40.44 48.3308 40.6C48.5228 40.776 48.7468 40.864 49.0028 40.864ZM13.5514 58.144C12.4634 58.144 11.6314 57.88 11.0554 57.352C10.4794 56.808 10.1914 56.048 10.1914 55.072C10.1914 54.592 10.2474 54.136 10.3594 53.704L12.9274 41.68L16.4794 41.2L15.3274 46.6C15.7754 46.328 16.1434 46.152 16.4314 46.072C16.7194 45.976 17.0074 45.928 17.2954 45.928C19.1834 45.928 20.1274 47.296 20.1274 50.032C20.1274 51.136 19.9114 52.32 19.4794 53.584C19.0634 54.832 18.3594 55.904 17.3674 56.8C16.3914 57.696 15.1194 58.144 13.5514 58.144ZM14.8954 55.816C15.3914 55.816 15.8554 55.512 16.2874 54.904C16.7194 54.28 17.0634 53.512 17.3194 52.6C17.5754 51.672 17.7034 50.784 17.7034 49.936C17.7034 49.296 17.5914 48.752 17.3674 48.304C17.1434 47.856 16.8314 47.632 16.4314 47.632C16.1914 47.632 15.9194 47.672 15.6154 47.752C15.3274 47.816 15.1274 47.92 15.0154 48.064L13.6954 54.16C13.6474 54.352 13.6234 54.536 13.6234 54.712C13.6234 55.448 14.0474 55.816 14.8954 55.816ZM24.5274 58.096C23.3434 58.096 22.4074 57.792 21.7194 57.184C21.0314 56.576 20.6874 55.616 20.6874 54.304C20.6874 53.216 20.9114 52.008 21.3594 50.68C21.8074 49.352 22.5274 48.208 23.5194 47.248C24.5114 46.272 25.7594 45.784 27.2634 45.784C29.3114 45.784 30.3354 47.064 30.3354 49.624V49.648C30.3834 49.664 30.4714 49.672 30.5994 49.672C31.1274 49.672 31.7354 49.536 32.4234 49.264C33.1114 48.976 33.7354 48.632 34.2954 48.232L34.5114 48.88C34.0474 49.376 33.4394 49.8 32.6874 50.152C31.9514 50.488 31.1434 50.728 30.2634 50.872C30.1354 52.328 29.8074 53.6 29.2794 54.688C28.7514 55.776 28.0714 56.616 27.2394 57.208C26.4074 57.8 25.5034 58.096 24.5274 58.096ZM25.4874 55.936C25.8714 55.936 26.2554 55.72 26.6394 55.288C27.0234 54.84 27.3594 54.24 27.6474 53.488C27.9354 52.72 28.1434 51.872 28.2714 50.944C27.8394 50.848 27.6234 50.512 27.6234 49.936C27.6234 49.28 27.8714 48.848 28.3674 48.64C28.3354 48.112 28.2554 47.752 28.1274 47.56C27.9994 47.352 27.7754 47.248 27.4554 47.248C26.9274 47.248 26.4154 47.632 25.9194 48.4C25.4234 49.168 25.0234 50.088 24.7194 51.16C24.4154 52.232 24.2634 53.176 24.2634 53.992C24.2634 54.76 24.3514 55.28 24.5274 55.552C24.7034 55.808 25.0234 55.936 25.4874 55.936ZM34.4503 58.144C33.5383 58.144 32.7783 57.832 32.1703 57.208C31.5623 56.584 31.2583 55.608 31.2583 54.28C31.2583 53.096 31.4903 51.856 31.9543 50.56C32.4343 49.248 33.1383 48.144 34.0663 47.248C35.0103 46.336 36.1303 45.88 37.4263 45.88C38.0823 45.88 38.5703 45.992 38.8903 46.216C39.2103 46.44 39.3703 46.736 39.3703 47.104V47.272L39.6343 46H43.0903L41.3623 54.16C41.2983 54.4 41.2663 54.656 41.2663 54.928C41.2663 55.616 41.5943 55.96 42.2503 55.96C42.6983 55.96 43.0823 55.752 43.4023 55.336C43.7383 54.92 44.0023 54.376 44.1943 53.704H45.2023C44.6103 55.432 43.8743 56.608 42.9943 57.232C42.1303 57.84 41.2583 58.144 40.3783 58.144C39.7063 58.144 39.1623 57.96 38.7463 57.592C38.3463 57.208 38.1063 56.656 38.0263 55.936C37.5623 56.592 37.0423 57.128 36.4663 57.544C35.9063 57.944 35.2343 58.144 34.4503 58.144ZM36.0103 55.816C36.4103 55.816 36.8023 55.632 37.1863 55.264C37.5863 54.88 37.8583 54.36 38.0023 53.704L39.1543 48.28C39.1543 48.072 39.0743 47.872 38.9143 47.68C38.7543 47.472 38.5063 47.368 38.1703 47.368C37.5303 47.368 36.9543 47.744 36.4423 48.496C35.9303 49.232 35.5303 50.128 35.2423 51.184C34.9543 52.224 34.8103 53.144 34.8103 53.944C34.8103 54.744 34.9223 55.256 35.1463 55.48C35.3863 55.704 35.6743 55.816 36.0103 55.816ZM45.8351 46H49.2911L48.9791 47.488C49.5231 47.008 50.0111 46.64 50.4431 46.384C50.8911 46.128 51.3711 46 51.8831 46C52.3951 46 52.7951 46.176 53.0831 46.528C53.3871 46.88 53.5391 47.304 53.5391 47.8C53.5391 48.264 53.3871 48.672 53.0831 49.024C52.7791 49.376 52.3551 49.552 51.8111 49.552C51.4591 49.552 51.2191 49.472 51.0911 49.312C50.9791 49.136 50.8911 48.888 50.8271 48.568C50.7791 48.36 50.7311 48.208 50.6831 48.112C50.6351 48.016 50.5471 47.968 50.4191 47.968C50.0831 47.968 49.7951 48.04 49.5551 48.184C49.3311 48.312 49.0351 48.544 48.6671 48.88L46.7471 58H43.2911L45.8351 46ZM56.1066 58.144C55.1946 58.144 54.4346 57.832 53.8266 57.208C53.2186 56.584 52.9146 55.608 52.9146 54.28C52.9146 53.096 53.1466 51.856 53.6106 50.56C54.0906 49.248 54.7946 48.144 55.7226 47.248C56.6666 46.336 57.7866 45.88 59.0826 45.88C59.7386 45.88 60.2266 45.992 60.5466 46.216C60.8666 46.44 61.0266 46.736 61.0266 47.104V47.2L62.2026 41.68L65.7546 41.2L62.9946 54.16C62.9306 54.4 62.8986 54.632 62.8986 54.856C62.8986 55.496 63.2266 55.816 63.8826 55.816C64.1706 55.816 64.4266 55.768 64.6506 55.672C64.5866 56.472 64.2986 57.088 63.7866 57.52C63.2906 57.936 62.6986 58.144 62.0106 58.144C61.3706 58.144 60.8266 57.984 60.3786 57.664C59.9466 57.328 59.6586 56.824 59.5146 56.152C58.5546 57.48 57.4186 58.144 56.1066 58.144ZM57.6666 55.816C58.0186 55.816 58.3706 55.664 58.7226 55.36C59.0906 55.056 59.3626 54.632 59.5386 54.088L59.6346 53.704L60.8106 48.208C60.6666 47.648 60.3386 47.368 59.8266 47.368C59.1866 47.368 58.6106 47.744 58.0986 48.496C57.5866 49.232 57.1866 50.128 56.8986 51.184C56.6106 52.224 56.4666 53.144 56.4666 53.944C56.4666 54.744 56.5786 55.256 56.8026 55.48C57.0426 55.704 57.3306 55.816 57.6666 55.816Z" fill="#292929"/>
</svg>
